{"accessors" : [{"bufferView" : 0, "byteOffset" : 0, "componentType" : 5123, "count" : 720, "type" : "SCALAR", "max" : [719], "min" : [0]}, {"bufferView" : 1, "byteOffset" : 0, "componentType" : 5126, "count" : 720, "type" : "VEC3", "max" : [13.828734397888184, 15.836902618408203, 48.860870361328125], "min" : [-37.97327423095703, -21.205873489379883, 32.853031158447266], "name" : "POSITION"}, {"bufferView" : 1, "byteOffset" : 12, "componentType" : 5126, "count" : 720, "type" : "VEC3", "max" : [1.0000044107437134, 1.0000044107437134, 1.0000044107437134], "min" : [-1.0000044107437134, -1.0000044107437134, -1.0000044107437134], "name" : "NORMAL"}], "asset" : {"generator" : "Aspose.3D 23.9.0", "version" : "2.0"}, "buffers" : [{"uri" : "data:application/octet-stream;base64,", "byteLength" : 18728}], "bufferViews" : [{"buffer" : 0, "byteOffset" : 0, "byteLength" : 1440, "target" : 34963}, {"buffer" : 0, "byteOffset" : 1444, "byteLength" : 17280, "byteStride" : 24, "target" : 34962}], "meshes" : [{"primitives" : [{"attributes" : {"POSITION" : 1, "NORMAL" : 2}, "indices" : 0, "mode" : 4}], "name" : "exported"}], "nodes" : [{"mesh" : 0, "name" : "exported"}], "scene" : 0, "scenes" : [{"nodes" : [0]}]}